<?xml version="1.0" encoding="UTF-8" standalone="no"?>
<!DOCTYPE svg PUBLIC "-//W3C//DTD SVG 1.1//EN" "http://www.w3.org/Graphics/SVG/1.1/DTD/svg11.dtd">
<svg width="100%" height="100%" viewBox="0 0 2285 2285" version="1.1" xmlns="http://www.w3.org/2000/svg" xmlns:xlink="http://www.w3.org/1999/xlink" xml:space="preserve" xmlns:serif="http://www.serif.com/" style="fill-rule:evenodd;clip-rule:evenodd;stroke-linejoin:round;stroke-miterlimit:2;">
    <g transform="matrix(1,0,0,1,-3277.73,-3867.4)">
        <g id="Negative" transform="matrix(1,0,0,1,3229.2,1081.77)">
            <rect x="48.531" y="2785.63" width="2284.25" height="2284.25" style="fill:none;"/>
            <g transform="matrix(1.90202,0,0,1.90129,-1867.52,1668.07)">
                <g transform="matrix(1.08018,0,0,1.08018,212.376,-383.927)">
                    <path d="M779.734,1664.59C753.055,1599.77 738.338,1528.77 738.338,1454.37C738.338,1148.97 986.285,901.019 1291.69,901.019C1597.09,901.019 1845.03,1148.97 1845.03,1454.37C1845.03,1759.77 1597.09,2007.72 1291.69,2007.72C1225.24,2007.72 1161.51,1995.98 1102.46,1974.46C1092.41,1842.38 1140.35,1756.58 1293.21,1722.03C1360.76,1706.76 1507.11,1719.87 1574.06,1656.36C1604.76,1627.25 1654.12,1585.18 1601.25,1522.31C1546.75,1457.51 1323.83,1344.04 1203.54,1374.82C1199.54,1375.84 1199.87,1377.46 1197.2,1374.27C1186.88,1361.93 1175.86,1313.86 1152.86,1289.25C1091.67,1223.81 1001.32,1251.93 965.451,1302.42C929.872,1352.51 935.337,1439.09 1011,1482.15C1031.24,1493.67 1053.74,1499.15 1053.74,1499.15C1053.74,1499.15 1025.4,1507.1 1013.34,1514.06C986.286,1529.68 934.694,1570.64 891.387,1592.85C846.697,1613.2 810.615,1636.76 779.734,1664.59ZM1337.01,1346.69C1336.58,1307.03 1332.71,1250.23 1298.98,1226.18C1257.84,1206.23 1209.83,1219.39 1183.37,1256.73C1192.28,1263.5 1198.07,1277.5 1205.43,1294.09C1211.44,1307.61 1219.97,1323.05 1224.45,1333.04C1242.87,1328.5 1262.13,1330.63 1278.9,1332.18C1297.75,1333.93 1314.97,1340.22 1337.01,1346.69Z" style="fill:rgb(199,81,0);"/>
                </g>
                <g transform="matrix(-1.56976,-0.0293425,-0.029822,1.59541,3996.61,-469.764)">
                    <circle cx="1477.79" cy="1114.17" r="34.994" style="fill:rgb(199,81,0);"/>
                </g>
            </g>
        </g>
    </g>
</svg>
